<?xml version="1.0" standalone="no"?>
<!DOCTYPE svg PUBLIC "-//W3C//DTD SVG 20010904//EN"
 "http://www.w3.org/TR/2001/REC-SVG-20010904/DTD/svg10.dtd">
<svg version="1.0" xmlns="http://www.w3.org/2000/svg"
 width="1024.000000pt" height="1024.000000pt" viewBox="0 0 1024.000000 1024.000000"
 preserveAspectRatio="xMidYMid meet">

<g transform="translate(0.000000,1024.000000) scale(0.100000,-0.100000)"
fill="#000000" stroke="none">
<path d="M0 5120 l0 -5120 5120 0 5120 0 0 5120 0 5120 -5120 0 -5120 0 0
-5120z m7420 3343 c275 -63 475 -170 669 -358 178 -172 295 -373 364 -625 l32
-115 0 -2240 0 -2240 -31 -115 c-42 -153 -83 -256 -150 -368 -180 -303 -454
-507 -814 -605 l-115 -32 -2220 0 c-2124 0 -2224 1 -2312 19 -76 15 -91 21
-88 35 3 18 -27 23 -42 6 -5 -4 -3 -5 4 -1 6 3 15 1 19 -5 5 -9 -1 -10 -22 -5
-16 4 -31 12 -32 17 -2 5 -7 7 -12 4 -12 -8 -120 35 -120 47 0 6 6 6 15 -2 12
-10 15 -10 15 3 0 8 6 18 13 21 6 3 3 4 -8 1 -27 -6 -68 16 -71 37 -2 15 3 17
24 11 21 -5 24 -3 19 11 -4 10 -7 21 -7 25 0 4 -9 7 -20 7 -11 0 -20 -6 -20
-13 0 -6 -4 -14 -9 -17 -4 -3 -8 8 -7 24 1 30 4 32 43 33 12 0 20 4 17 9 -3 4
-9 6 -14 3 -4 -3 -10 -2 -12 2 -1 5 -22 20 -44 35 -32 20 -44 24 -53 15 -9 -9
-11 -8 -5 7 5 13 4 17 -4 12 -7 -4 -12 -2 -12 6 0 15 -67 62 -92 64 -30 3 -31
4 -18 19 11 14 7 19 -12 16 -5 0 -7 5 -5 12 1 6 -4 11 -10 10 -7 -2 -12 2 -10
9 1 7 -5 12 -13 13 -8 0 -16 6 -16 13 -3 24 -4 24 -21 11 -16 -13 -17 -12 -4
4 12 15 9 21 -11 18 -5 0 -7 2 -6 7 3 14 -14 42 -23 36 -5 -3 -9 -2 -7 3 1 4
-26 50 -60 102 -34 52 -63 99 -64 103 -2 5 -12 6 -22 2 -14 -5 -15 -9 -4 -15
10 -7 11 -9 0 -9 -7 0 -10 -5 -6 -11 4 -7 1 -10 -7 -7 -8 3 -13 11 -12 17 2 6
-2 11 -8 11 -5 0 -7 5 -4 10 3 6 15 10 26 10 11 0 19 7 19 16 0 13 -3 14 -14
5 -11 -9 -15 -9 -18 0 -3 9 -8 9 -24 0 -15 -10 -15 -11 -1 -7 9 3 17 1 17 -4
0 -6 -4 -10 -10 -10 -5 0 -10 -6 -10 -14 0 -15 -27 -29 -40 -21 -5 3 -8 -4 -7
-15 1 -11 4 -20 7 -20 4 0 7 -7 7 -15 0 -22 -5 -19 -22 15 -9 17 -13 36 -9 43
4 7 4 9 -1 5 -18 -17 -83 174 -112 332 -16 89 -17 243 -18 2265 0 2054 1 2175
18 2263 79 408 336 752 697 936 168 85 332 133 505 146 55 4 1054 7 2220 6
l2120 -1 95 -22z m-5441 -6088 c13 -22 15 -31 6 -20 -18 22 -53 86 -38 70 6
-5 20 -28 32 -50z m179 -85 c12 -19 11 -20 -8 -8 -11 7 -20 16 -20 20 0 15 15
8 28 -12z m-113 -10 c10 -11 16 -20 13 -20 -3 0 -13 9 -23 20 -10 11 -16 20
-13 20 3 0 13 -9 23 -20z m75 -78 c23 -20 67 -66 98 -102 l57 -65 -60 52 c-33
28 -82 78 -110 109 -54 63 -49 64 15 6z m61 15 c-10 -9 -11 -8 -5 6 3 10 9 15
12 12 3 -3 0 -11 -7 -18z m33 -30 c11 -10 10 -15 -1 -25 -17 -17 -38 -5 -24
12 6 7 8 16 4 19 -3 4 -3 7 1 7 4 0 13 -6 20 -13z m67 -21 c16 9 10 -6 -11
-28 -11 -12 -20 -17 -20 -10 0 6 4 13 10 17 5 3 8 11 6 18 -1 7 -1 9 1 4 3 -4
9 -5 14 -1z m19 -78 c0 -12 -38 -10 -45 2 -4 6 5 9 19 8 15 -1 26 -6 26 -10z
m80 -32 c0 -11 -19 -15 -25 -6 -3 5 1 10 9 10 9 0 16 -2 16 -4z m-79 -33 c13
-16 12 -17 -3 -4 -10 7 -18 15 -18 17 0 8 8 3 21 -13z m169 -3 c0 -5 -4 -10
-10 -10 -5 0 -10 5 -10 10 0 6 5 10 10 10 6 0 10 -4 10 -10z m-30 -86 c0 -2
-9 0 -20 6 -11 6 -20 13 -20 16 0 2 9 0 20 -6 11 -6 20 -13 20 -16z m80 -36
c0 -4 -4 -8 -9 -8 -6 0 -12 4 -15 8 -3 5 1 9 9 9 8 0 15 -4 15 -9z m7189
-1164 c27 -63 90 -123 156 -151 25 -10 45 -20 45 -23 0 -3 -25 -16 -56 -29
-63 -27 -123 -90 -151 -156 -10 -25 -20 -45 -23 -45 -3 0 -16 25 -29 56 -27
63 -90 123 -156 151 -25 10 -45 20 -45 23 0 3 25 16 56 29 63 27 123 90 151
156 10 25 20 45 23 45 3 0 16 -25 29 -56z"/>
<path d="M2896 8304 c-156 -28 -331 -100 -461 -187 -86 -59 -245 -217 -305
-303 -105 -151 -176 -343 -200 -534 -6 -56 -10 -790 -10 -2175 0 -2272 -2
-2182 56 -2365 47 -152 125 -295 223 -410 25 -30 45 -58 43 -63 -1 -5 1 -6 6
-3 5 3 26 -13 48 -36 21 -22 34 -38 27 -34 -6 3 -14 2 -18 -3 -3 -6 3 -8 14
-6 11 2 42 -14 76 -39 126 -95 269 -161 444 -204 l106 -27 1785 0 c982 -1
1972 2 2200 5 408 6 417 6 513 33 468 126 802 497 873 969 12 84 14 406 11
2245 -3 1983 -4 2153 -20 2216 -62 248 -158 427 -317 587 -173 174 -400 293
-639 335 -124 22 -4334 21 -4455 -1z m4464 -654 c13 -8 8 -29 -33 -147 -27
-76 -82 -235 -123 -353 -41 -118 -79 -220 -85 -226 -8 -9 -18 -10 -40 -2 -16
5 -29 13 -29 17 0 16 233 691 246 712 7 12 45 11 64 -1z m-390 -55 c0 -19 -3
-35 -7 -36 -85 -9 -93 -20 -93 -122 0 -81 -10 -112 -42 -135 -18 -13 -17 -15
12 -48 29 -33 30 -39 30 -124 0 -81 2 -90 22 -104 12 -9 35 -16 50 -16 25 0
28 -3 28 -34 0 -26 -5 -36 -20 -41 -33 -11 -99 5 -128 30 -25 21 -27 30 -32
129 -5 115 -12 127 -75 144 -23 6 -31 15 -33 36 -4 31 13 56 38 56 9 0 29 9
44 21 25 20 26 25 26 116 0 95 0 95 34 129 31 31 40 34 90 34 l56 0 0 -35z
m622 6 c31 -28 32 -31 36 -127 5 -108 14 -128 63 -139 16 -4 34 -16 40 -27 14
-27 3 -68 -19 -68 -9 0 -32 -9 -49 -20 l-33 -20 0 -84 c0 -93 -8 -124 -41
-154 -24 -23 -87 -37 -119 -27 -15 5 -20 15 -20 41 0 31 2 34 30 34 55 0 70
28 70 128 0 85 1 89 30 117 l29 28 -29 27 c-29 27 -30 31 -30 117 0 105 -10
124 -63 126 -36 1 -37 2 -37 39 l0 38 55 0 c46 0 60 -4 87 -29z m-3452 -837
c74 -24 134 -76 178 -151 21 -37 193 -372 382 -743 188 -371 361 -708 383
-748 l40 -73 24 43 c14 24 194 376 401 783 206 407 388 757 403 778 35 50 92
91 153 111 42 15 113 17 540 18 559 2 551 3 628 -73 84 -84 78 49 78 -1699 0
-1007 -4 -1566 -10 -1601 -14 -75 -56 -137 -114 -174 l-49 -30 -411 0 c-401 0
-412 1 -451 21 -51 28 -91 68 -119 119 -21 40 -21 46 -26 804 l-5 763 -159
-388 c-88 -214 -228 -558 -313 -764 -84 -206 -160 -390 -170 -408 -22 -44 -85
-99 -142 -126 -41 -19 -67 -21 -238 -24 -152 -3 -204 0 -246 12 -65 19 -128
63 -161 113 -19 29 -296 692 -296 708 0 3 -179 439 -312 760 -23 55 -45 104
-50 109 -4 6 -8 -332 -8 -750 l0 -760 -26 -53 c-32 -64 -98 -116 -169 -131
-33 -8 -175 -10 -425 -8 l-375 3 -52 29 c-53 29 -90 75 -111 135 -9 25 -12
437 -12 1630 0 1524 1 1598 19 1636 21 47 70 99 115 122 49 26 112 28 601 25
376 -2 468 -5 505 -18z"/>
<path d="M3078 6723 c-17 -4 -18 -25 -18 -252 l0 -248 125 -127 125 -126 0
-748 0 -749 24 -11 c13 -6 30 -24 37 -41 8 -17 16 -31 19 -31 3 0 6 89 8 198
l2 197 150 150 150 150 0 169 0 168 130 125 130 126 0 388 c0 377 -1 388 -20
394 -61 19 -80 113 -32 165 81 91 221 -5 169 -115 -9 -20 -28 -41 -42 -47
l-25 -11 0 -396 0 -396 -130 -130 -130 -130 0 -165 0 -165 -150 -150 -150
-150 0 -454 0 -455 95 -97 95 -96 0 -207 0 -206 85 0 85 0 0 283 0 282 -130
130 -130 130 0 318 0 318 63 59 c64 61 93 73 104 43 5 -12 -10 -32 -55 -72
l-62 -56 0 -295 0 -295 130 -130 130 -130 0 -287 c0 -230 3 -288 13 -288 32 0
105 59 126 102 20 42 21 59 21 319 l0 274 -165 165 c-91 91 -165 173 -165 182
0 41 42 10 182 -129 l148 -148 0 90 0 90 -105 105 -105 105 0 290 0 290 93 93
92 92 134 0 134 0 43 47 c32 35 42 53 38 69 -16 62 56 132 124 120 96 -15 121
-134 40 -190 -25 -18 -80 -21 -107 -7 -14 8 -27 0 -67 -40 l-48 -49 -129 0
-129 0 -84 -76 -84 -76 0 -272 0 -271 80 -80 80 -80 0 397 c0 322 3 397 13
401 19 7 29 -2 49 -45 l18 -38 179 0 c167 0 179 1 184 19 7 29 56 56 100 56
31 0 45 -7 68 -33 63 -71 20 -172 -73 -172 -47 1 -65 11 -92 53 l-18 27 -163
0 -163 0 37 -87 37 -88 231 -3 231 -2 76 -84 76 -83 0 -150 0 -149 50 -49 50
-49 0 -206 0 -205 35 -28 c78 -62 43 -187 -54 -187 -67 0 -111 44 -111 111 0
24 10 41 40 70 l40 38 0 194 0 194 -54 50 -54 49 5 148 6 147 -69 70 -68 69
-204 0 c-159 0 -203 -3 -199 -12 48 -114 251 -612 273 -668 l29 -75 3 240 c2
220 1 241 -15 252 -51 36 -63 55 -63 100 0 63 40 103 102 103 66 -1 108 -44
108 -111 0 -24 -9 -41 -40 -70 l-40 -38 0 -308 0 -309 36 -84 c20 -47 60 -145
90 -219 63 -157 83 -186 155 -226 48 -26 66 -30 157 -33 l102 -4 0 276 c0 231
-2 276 -14 276 -28 0 -66 59 -66 102 0 111 152 137 196 33 19 -45 2 -101 -37
-123 l-29 -17 0 -272 0 -273 58 0 c115 0 211 49 251 128 10 21 52 120 94 222
41 102 132 324 201 493 l126 309 0 506 0 507 118 118 c114 114 146 134 159
101 4 -11 -29 -51 -111 -133 l-116 -116 0 -420 c0 -230 4 -415 8 -409 5 5 55
122 112 259 57 138 108 255 113 262 6 8 16 9 33 2 14 -5 124 -9 245 -9 l219 0
0 46 c0 37 5 51 29 75 19 19 40 29 58 29 19 0 39 10 56 28 l27 28 0 400 0 400
-29 17 c-63 37 -66 126 -6 174 l35 28 0 218 0 217 -65 0 -65 0 0 -53 c0 -47 3
-55 25 -67 25 -13 55 -65 55 -95 0 -57 -72 -113 -131 -100 -43 10 -79 58 -79
107 0 32 7 47 35 75 30 30 35 41 35 84 l0 49 -70 0 -70 0 0 -449 0 -449 26
-17 c33 -21 57 -78 49 -116 -4 -16 -20 -40 -37 -54 -68 -58 -168 -13 -168 75
0 52 13 76 50 95 l30 16 0 449 0 450 -63 0 -63 0 -167 -167 -167 -168 0 -165
0 -165 -79 -79 c-55 -54 -84 -77 -95 -73 -29 11 -17 36 54 111 l70 73 0 159 0
159 157 157 158 158 -51 0 c-28 0 -74 -7 -103 -16 -101 -30 -114 -50 -413
-639 -607 -1194 -572 -1129 -590 -1123 -5 2 -44 71 -86 153 l-78 150 -101 3
-102 3 -63 68 c-35 37 -73 73 -85 80 -57 30 -69 113 -24 163 25 28 36 33 76
33 40 0 51 -5 76 -33 18 -21 29 -43 29 -63 0 -36 -23 -84 -47 -98 -16 -9 -13
-15 27 -55 44 -46 45 -46 112 -46 37 0 68 3 68 8 -1 4 -60 124 -133 267 l-132
260 -72 3 c-68 3 -72 2 -92 -26 -15 -21 -21 -48 -23 -103 -3 -68 -5 -74 -25
-77 -22 -3 -23 -1 -23 90 l0 94 38 37 c36 35 42 37 101 37 34 0 61 4 59 9 -1
5 -79 160 -173 344 l-170 335 -3 -381 -2 -380 37 -32 c34 -29 38 -38 38 -80 0
-40 -5 -51 -33 -76 -24 -22 -42 -29 -72 -29 -103 0 -143 140 -55 192 l35 20 0
418 0 419 -29 21 c-65 46 -97 50 -387 50 l-274 0 0 -138 0 -137 165 -165 165
-165 0 -145 0 -145 -165 -165 -165 -165 0 -86 c0 -86 0 -87 35 -122 28 -28 35
-43 35 -75 0 -77 -76 -129 -143 -97 -78 37 -81 145 -6 189 29 17 29 18 29 114
l0 97 165 165 165 165 0 118 0 119 -170 175 -170 175 0 144 0 144 -187 -1
c-104 -1 -196 -3 -205 -6z m3275 -153 c14 -11 31 -36 37 -54 15 -46 -7 -99
-49 -121 l-31 -16 0 -328 c0 -255 -3 -330 -12 -334 -37 -12 -38 -3 -38 337 l0
331 -29 17 c-32 18 -53 71 -44 110 3 13 17 35 31 51 32 34 96 38 135 7z
m-3024 -204 c32 -17 51 -54 51 -99 0 -26 13 -45 71 -103 65 -66 75 -72 104
-67 44 7 89 -18 109 -62 51 -107 -82 -200 -167 -117 -28 28 -37 74 -24 117 9
28 -115 161 -141 149 -9 -4 -34 -9 -54 -12 -33 -4 -43 1 -74 32 -33 33 -36 40
-31 79 11 78 86 119 156 83z m2508 -532 c4 -11 -41 -63 -156 -178 l-161 -161
0 -181 0 -180 29 -22 c66 -48 59 -144 -13 -179 -74 -35 -152 16 -150 98 2 42
30 83 66 95 17 5 18 20 18 198 l0 193 168 166 c92 92 173 167 180 167 7 0 15
-7 19 -16z m200 -100 c4 -11 -39 -61 -151 -173 l-156 -156 0 -395 0 -395 -100
-100 -100 -100 0 -227 c0 -226 0 -227 23 -239 38 -19 57 -51 57 -97 0 -125
-182 -142 -205 -19 -8 42 15 93 50 109 l25 11 0 241 0 241 100 100 100 100 0
394 0 394 158 163 c86 89 165 162 175 163 10 1 20 -6 24 -15z m297 -230 l72
-66 152 1 c152 2 192 -5 192 -34 0 -20 -18 -22 -197 -24 l-163 -1 -70 67 c-75
70 -95 97 -85 113 11 19 27 10 99 -56z m-1232 -629 c79 -72 196 -177 261 -234
87 -76 117 -109 117 -126 0 -31 -5 -33 -102 -47 -46 -6 -85 -12 -86 -14 -2 -1
22 -51 53 -110 34 -67 55 -118 53 -133 -4 -34 -70 -72 -118 -69 -34 3 -37 7
-93 116 l-59 114 -63 -61 c-114 -110 -118 -102 -144 294 -12 171 -23 325 -26
343 -5 38 26 78 50 65 7 -4 78 -67 157 -138z m472 -1193 c3 -5 -26 -40 -64
-77 -63 -62 -70 -74 -70 -108 0 -86 -101 -128 -169 -71 -26 22 -31 33 -31 72
0 62 36 102 93 102 21 0 48 -5 59 -11 18 -10 28 -4 77 45 52 52 91 70 105 48z"/>
<path d="M6244 6515 c-21 -32 -11 -60 28 -76 29 -12 32 -11 54 14 23 27 23 46
1 75 -17 21 -65 14 -83 -13z"/>
<path d="M3237 6312 c-34 -38 -8 -92 44 -92 32 0 49 17 49 50 0 52 -60 78 -93
42z"/>
<path d="M3530 6030 c-27 -27 -23 -57 11 -83 30 -22 60 -13 80 24 9 17 7 27
-8 48 -26 34 -56 38 -83 11z"/>
<path d="M5444 5055 c-21 -33 -6 -71 31 -81 34 -8 53 0 67 30 16 36 -11 76
-52 76 -21 0 -35 -8 -46 -25z"/>
<path d="M5467 3892 c-19 -21 -21 -45 -7 -73 16 -29 75 -26 95 5 37 56 -44
117 -88 68z"/>
<path d="M4955 4863 c13 -162 35 -489 35 -517 l0 -30 64 63 c42 42 70 62 82
59 13 -2 41 -44 82 -122 34 -66 64 -121 66 -123 6 -6 56 20 56 29 0 4 -27 62
-60 128 -33 66 -60 126 -60 134 0 18 17 23 108 32 39 4 72 10 72 13 0 6 -373
342 -427 384 l-23 19 5 -69z"/>
<path d="M5299 3539 c-26 -26 -21 -57 12 -82 32 -23 61 -16 77 19 16 34 15 41
-8 64 -26 26 -55 25 -81 -1z"/>
<path d="M6900 6510 l0 -219 30 -16 c37 -19 50 -43 50 -93 0 -43 -27 -87 -60
-97 -19 -6 -20 -17 -20 -416 0 -398 -1 -411 -21 -438 -20 -27 -20 -29 -3 -64
35 -74 -13 -150 -93 -149 -22 0 -43 2 -49 3 -5 1 -120 1 -256 0 l-248 -1 0
-50 0 -50 198 0 197 0 218 -218 217 -217 0 -472 0 -472 30 -16 c35 -18 50 -43
50 -85 0 -48 -25 -87 -65 -100 -45 -15 -75 -8 -108 26 -21 21 -27 36 -27 72 0
38 5 49 35 78 l35 33 0 458 0 458 -203 203 -202 202 -193 0 -192 0 0 -120 c0
-118 1 -120 20 -110 14 8 20 21 20 46 0 65 41 113 97 114 97 0 147 -98 87
-169 -31 -37 -80 -49 -120 -28 -28 14 -31 13 -66 -18 l-38 -32 0 -559 c0 -359
4 -573 11 -597 13 -49 63 -105 114 -128 34 -16 67 -19 218 -19 l177 0 0 398 0
398 -29 17 c-33 19 -56 75 -46 109 24 79 119 105 176 49 39 -39 40 -96 3 -140
-14 -17 -32 -31 -40 -31 -12 0 -14 -62 -14 -400 l0 -400 175 0 c197 0 224 7
283 74 54 62 55 82 48 826 l-6 675 -69 3 c-62 3 -70 1 -76 -17 -18 -58 -116
-81 -168 -41 -48 38 -44 130 7 165 34 24 103 19 131 -10 14 -13 25 -29 25 -35
0 -6 30 -10 78 -10 l77 0 3 260 2 260 -64 0 c-57 0 -65 -3 -71 -21 -9 -26 -62
-59 -98 -59 -59 0 -107 46 -107 103 0 40 36 85 79 98 34 10 44 9 73 -8 18 -10
38 -29 43 -41 9 -21 16 -23 74 -20 l64 3 -2 564 c-1 438 -5 570 -15 595 -16
39 -90 106 -116 106 -20 0 -20 -7 -20 -411 l0 -412 36 -31 c27 -24 37 -41 41
-73 5 -39 2 -46 -30 -78 -29 -29 -42 -35 -77 -35 -109 0 -141 149 -42 199 l22
12 0 419 0 420 -95 0 -95 0 0 -220z m-375 -2064 c36 -15 65 -59 65 -98 0 -32
-34 -85 -59 -93 -21 -6 -21 -11 -21 -360 l0 -353 26 -17 c78 -51 57 -174 -33
-191 -87 -16 -149 68 -111 151 7 15 25 33 40 41 l28 15 0 353 0 353 -26 13
c-53 29 -70 107 -33 154 36 45 70 54 124 32z"/>
<path d="M6447 4392 c-21 -23 -22 -66 -2 -82 8 -7 27 -12 42 -12 50 0 72 67
31 96 -29 21 -51 20 -71 -2z"/>
<path d="M6436 3468 c-21 -30 -20 -44 4 -68 37 -37 100 -14 100 37 0 49 -76
72 -104 31z"/>
<path d="M2970 6618 c-19 -42 -20 -84 -20 -1630 0 -1097 3 -1595 11 -1615 13
-35 55 -80 92 -99 l27 -15 0 211 c0 168 -3 210 -13 210 -27 0 -60 48 -61 89
-1 71 62 124 129 107 92 -23 103 -151 18 -195 -23 -12 -23 -14 -23 -221 l0
-210 230 0 230 0 0 194 0 194 -66 71 c-36 39 -70 68 -75 65 -10 -6 -12 -175
-3 -222 4 -18 14 -34 25 -37 11 -4 26 -19 34 -35 23 -45 19 -85 -14 -122 -25
-28 -36 -33 -75 -33 -36 0 -51 6 -73 28 -38 37 -39 103 -4 141 14 14 30 26 38
26 8 0 13 11 13 28 0 15 2 86 4 158 l4 131 -169 169 -170 169 3 725 2 725 -37
37 c-31 30 -37 43 -37 78 0 33 6 48 29 71 65 64 181 17 181 -73 0 -31 -34 -85
-58 -92 -19 -6 -19 -26 -24 -729 l-6 -722 139 -140 c76 -76 140 -137 142 -135
3 3 2 99 -1 214 -4 186 -6 206 -19 183 -18 -35 -42 -47 -93 -47 -57 0 -100 42
-100 98 0 43 27 87 60 97 20 6 20 18 20 743 l0 737 -125 125 -125 125 0 232
c0 156 -3 233 -10 233 -6 0 -20 -19 -30 -42z"/>
<path d="M3952 6594 c-42 -29 -16 -104 35 -104 19 0 53 37 53 58 0 44 -52 72
-88 46z"/>
<path d="M6662 6564 c-42 -29 -17 -104 35 -104 20 0 53 38 53 60 0 22 -33 60
-53 60 -7 0 -23 -7 -35 -16z"/>
<path d="M6837 6222 c-47 -52 11 -115 74 -82 25 14 25 61 1 83 -24 22 -55 21
-75 -1z"/>
<path d="M7078 5829 c-25 -14 -24 -75 1 -89 29 -15 56 -12 74 8 46 50 -16 116
-75 81z"/>
<path d="M3069 5786 c-16 -8 -25 -22 -27 -43 -6 -58 71 -83 99 -31 26 48 -23
99 -72 74z"/>
<path d="M6450 5760 c-24 -24 -25 -38 -4 -68 28 -41 104 -18 104 31 0 23 -36
57 -60 57 -11 0 -29 -9 -40 -20z"/>
<path d="M4200 5755 c-16 -20 -16 -61 0 -80 21 -25 72 -15 89 16 13 24 13 29
-2 53 -20 30 -67 36 -87 11z"/>
<path d="M4622 5544 c-41 -28 -22 -94 28 -94 55 0 78 52 40 90 -24 24 -38 25
-68 4z"/>
<path d="M7030 5460 c-37 -37 -16 -92 35 -92 52 0 75 67 33 96 -30 21 -44 20
-68 -4z"/>
<path d="M4410 5350 c-25 -25 -25 -52 -1 -74 27 -25 72 -17 90 15 13 24 13 29
-2 53 -21 32 -59 34 -87 6z"/>
<path d="M3460 5260 c-32 -32 -21 -77 24 -93 53 -20 91 65 44 97 -30 21 -44
20 -68 -4z"/>
<path d="M6742 5158 c-31 -39 -6 -98 42 -98 47 0 73 62 40 94 -19 19 -67 21
-82 4z"/>
<path d="M4520 5000 c-11 -11 -20 -28 -20 -38 0 -41 69 -69 98 -40 18 18 14
63 -6 81 -25 22 -48 21 -72 -3z"/>
<path d="M7019 4896 c-36 -18 -34 -76 3 -94 32 -15 63 -3 73 28 15 49 -31 89
-76 66z"/>
<path d="M6320 4731 c-15 -29 -12 -56 8 -74 52 -47 126 28 76 77 -22 23 -71
20 -84 -3z"/>
<path d="M4512 4588 c-18 -18 -14 -63 6 -81 50 -46 114 13 82 74 -12 22 -68
27 -88 7z"/>
<path d="M3252 4414 c-42 -29 -17 -104 35 -104 20 0 53 38 53 60 0 22 -33 60
-53 60 -7 0 -23 -7 -35 -16z"/>
<path d="M6718 4175 c-25 -55 39 -109 82 -70 22 20 26 65 8 83 -7 7 -27 12
-45 12 -26 0 -36 -6 -45 -25z"/>
<path d="M5094 3925 c-13 -21 -15 -31 -6 -50 22 -48 95 -41 108 11 14 57 -69
89 -102 39z"/>
<path d="M3067 3812 c-22 -25 -21 -55 2 -76 27 -25 72 -17 90 15 13 24 13 29
-2 53 -21 31 -66 35 -90 8z"/>
<path d="M4846 3714 c-22 -21 -20 -60 4 -84 24 -24 38 -25 68 -4 43 30 18 104
-36 104 -11 0 -28 -7 -36 -16z"/>
<path d="M6995 3470 c-35 -39 7 -99 61 -86 14 4 30 17 36 31 25 56 -54 102
-97 55z"/>
<path d="M3377 3462 c-35 -38 -8 -92 45 -92 31 0 51 21 51 57 0 48 -64 71 -96
35z"/>
<path d="M1910 2854 c0 -8 5 -12 10 -9 6 3 10 10 10 16 0 5 -4 9 -10 9 -5 0
-10 -7 -10 -16z"/>
<path d="M1927 2833 c-4 -3 -7 -13 -7 -21 0 -18 13 -7 16 13 2 17 1 18 -9 8z"/>
<path d="M1870 2780 c0 -5 5 -10 10 -10 6 0 10 5 10 10 0 6 -4 10 -10 10 -5 0
-10 -4 -10 -10z"/>
<path d="M1901 2774 c0 -11 3 -14 6 -6 3 7 2 16 -1 19 -3 4 -6 -2 -5 -13z"/>
<path d="M1837 2741 c-16 -6 -16 -8 -2 -26 9 -11 14 -15 11 -8 -4 6 -2 14 4
18 5 3 10 2 10 -4 0 -6 7 -8 15 -5 8 4 15 14 14 23 0 11 -2 12 -6 3 -3 -8 -9
-10 -16 -4 -7 5 -20 7 -30 3z"/>
<path d="M1875 2690 c3 -5 8 -10 11 -10 2 0 4 5 4 10 0 6 -5 10 -11 10 -5 0
-7 -4 -4 -10z"/>
<path d="M1950 2696 c0 -2 7 -6 15 -10 8 -3 15 -1 15 4 0 6 -7 10 -15 10 -8 0
-15 -2 -15 -4z"/>
<path d="M1940 2661 c0 -6 4 -13 10 -16 6 -3 7 1 4 9 -7 18 -14 21 -14 7z"/>
<path d="M1986 2624 c18 -26 28 -27 18 -1 -3 8 -12 18 -20 21 -11 4 -11 0 2
-20z"/>
<path d="M2605 1990 c3 -4 16 -10 30 -12 13 -3 22 -2 20 2 -3 4 -16 10 -30 12
-13 3 -22 2 -20 -2z"/>
<path d="M2695 1901 c-3 -5 -1 -12 5 -16 5 -3 10 1 10 9 0 18 -6 21 -15 7z"/>
<path d="M2591 1877 c2 -1 13 -9 24 -17 19 -14 19 -14 6 3 -7 9 -18 17 -24 17
-6 0 -8 -1 -6 -3z"/>
<path d="M2650 1860 c0 -5 5 -10 11 -10 5 0 7 5 4 10 -3 6 -8 10 -11 10 -2 0
-4 -4 -4 -10z"/>
<path d="M2740 1860 c-9 -6 -10 -10 -3 -10 6 0 15 5 18 10 8 12 4 12 -15 0z"/>
<path d="M2786 1837 c3 -10 9 -15 12 -12 3 3 0 11 -7 18 -10 9 -11 8 -5 -6z"/>
</g>
</svg>
